<svg id="Layer_1" data-name="Layer 1" xmlns="http://www.w3.org/2000/svg" viewBox="0 0 100 100"><defs><style>.cls-1{fill:#fd800a;}</style></defs><path class="cls-1" d="M50,12.5h0a50,50,0,0,0-50,50H0a50,50,0,0,0,50,50h0a50,50,0,0,0,50-50h0A50,50,0,0,0,50,12.5ZM74.46,63.75l-15.8,15.8a1.77,1.77,0,0,1-2.5,0l0,0a1.81,1.81,0,0,1,0-2.52L68.92,64.28H26.75A1.77,1.77,0,0,1,25,62.5a1.75,1.75,0,0,1,1.73-1.77h42.2L56.14,47.94a1.77,1.77,0,1,1,2.19-2.78,2.13,2.13,0,0,1,.33.34l15.8,15.8a1.73,1.73,0,0,1,0,2.45Z" transform="translate(0.01 -12.5)"/></svg>