<svg version="1.1" id="Layer_1" xmlns="http://www.w3.org/2000/svg" xmlns:xlink="http://www.w3.org/1999/xlink" x="0px" y="0px"
	 viewBox="0 0 512 640" style="enable-background:new 0 0 512 640;" xml:space="preserve">
<style type="text/css">
	.st0{opacity:0.25;}
	.st1{fill:#E5E5E5;}
</style>
<g class="st0">
	<g>
		<path class="st1" d="M403.8,396.5c0.8-1.2,1.3-2.7,1.3-4.3v-35.3c0-0.6-0.1-1.1-0.2-1.7c2.8-3.7,4.4-8.4,4.4-13.3V145.9
			c0-17.6-14.3-31.9-31.9-31.9s-31.9,14.3-31.9,31.9v196.1c0,5,1.6,9.6,4.4,13.3c-0.1,0.5-0.2,1.1-0.2,1.7v35.3
			c0,1.6,0.5,3.1,1.3,4.3l-3.3,9.2c-4.6,12.6-4.5,26.5,0.3,39.1c4.8,12.6,13.9,23,25.7,29.4c1.1,0.6,2.3,0.9,3.6,0.9
			s2.5-0.3,3.6-0.9c11.8-6.4,20.9-16.9,25.7-29.4c4.8-12.6,4.9-26.5,0.3-39.1L403.8,396.5z M364.8,364.4h3.3h18.7h3.3v20.3h-25.3
			L364.8,364.4L364.8,364.4z M360.6,145.9c0-9.3,7.6-16.9,16.9-16.9s16.9,7.6,16.9,16.9v196.1c0,4.1-3.4,7.5-7.5,7.5h-18.7
			c-4.1,0-7.5-3.4-7.5-7.5L360.6,145.9L360.6,145.9z M377.5,458.8c-15.5-10.5-22-30.1-15.5-48.1l4-11H389l4,11
			C399.5,428.8,393,448.3,377.5,458.8z"/>
	</g>
	<g>
		<path class="st1" d="M511.9,457.4l-9.4-59.5c1.6-1.4,2.6-3.4,2.6-5.7v-35.3c0-0.6-0.1-1.1-0.2-1.7c2.8-3.7,4.4-8.4,4.4-13.3V145.9
			c0-17.6-14.3-31.9-31.9-31.9s-31.9,14.3-31.9,31.9v196.1c0,5,1.6,9.6,4.4,13.3c-0.1,0.5-0.2,1.1-0.2,1.7v35.3c0,2.6,1.4,5,3.4,6.3
			L443,457.3c-0.4,2.2,0.2,4.4,1.7,6.1s3.5,2.7,5.7,2.7h54.1c2.2,0,4.3-1,5.7-2.6C511.6,461.8,512.2,459.6,511.9,457.4z
			 M464.8,384.7v-20.3h3.3h18.7h3.3v20.3H464.8z M460.6,145.9c0-9.3,7.6-16.9,16.9-16.9s16.9,7.6,16.9,16.9v196.1
			c0,4.1-3.4,7.5-7.5,7.5h-18.7c-4.1,0-7.5-3.4-7.5-7.5L460.6,145.9L460.6,145.9z M459.3,451.1l8.9-51.3h19.4l8.1,51.3H459.3z"/>
	</g>
	<g>
		<path class="st1" d="M261.4,383.1c-2.2-8.6-2.2-17.8,0-26.4l12.2-47.1c4.3-16.4,2.2-33.7-5.7-48.6c-7.9-15-21.1-26.3-37.1-32
			l-14.3-5.1c-18.4-6.5-37.7-9.9-57.3-9.9c-14,0-28,1.7-41.5,5.1C48.4,236.5,0,298.5,0,370c0,71.5,48.5,133.5,117.9,150.8l0.5,0.1
			c13.5,3.4,27.4,5.1,41.3,5.1c19.7,0,39.1-3.4,57.6-10l13.6-4.9c15.9-5.7,29-17,36.9-32c7.9-14.9,9.9-32.2,5.7-48.5L261.4,383.1z
			 M226,497l-13.6,4.9c-16.9,6-34.6,9.1-52.6,9.1c-12.7,0-25.4-1.6-37.7-4.6l-0.5-0.1C58.8,490.6,15,434.6,15,370
			c0-64.5,43.7-120.6,106.3-136.2c12.4-3.1,25.1-4.7,37.9-4.7c17.8,0,35.4,3,52.2,9l14.3,5.1c25.9,9.2,40.2,36.1,33.3,62.7
			L246.8,353c-2.9,11.1-2.9,22.8,0,33.9l12.3,47.5C266,460.9,251.8,487.8,226,497z"/>
	</g>
	<g>
		<path class="st1" d="M168.3,288.1c0-18.7-15.2-34-34-34s-34,15.2-34,34c0,18.7,15.2,34,34,34S168.3,306.9,168.3,288.1z
			 M134.3,307.1c-10.5,0-19-8.5-19-19s8.5-19,19-19s19,8.5,19,19C153.3,298.6,144.8,307.1,134.3,307.1z"/>
	</g>
	<g>
		<path class="st1" d="M93.3,354.2c-18.7,0-34,15.2-34,34s15.2,34,34,34s34-15.2,34-34S112.1,354.2,93.3,354.2z M93.3,407.1
			c-10.5,0-19-8.5-19-19s8.5-19,19-19s19,8.5,19,19S103.8,407.1,93.3,407.1z"/>
	</g>
	<g>
		<path class="st1" d="M183.3,414.2c-18.7,0-34,15.2-34,34s15.2,34,34,34s34-15.2,34-34S202.1,414.2,183.3,414.2z M183.3,467.1
			c-10.5,0-19-8.5-19-19s8.5-19,19-19s19,8.5,19,19S193.8,467.1,183.3,467.1z"/>
	</g>
</g>
</svg>
