<?xml version="1.0" encoding="utf-8"?>
<!-- Generator: Adobe Illustrator 27.0.0, SVG Export Plug-In . SVG Version: 6.00 Build 0)  -->
<svg version="1.1" id="Layer_1" xmlns="http://www.w3.org/2000/svg" xmlns:xlink="http://www.w3.org/1999/xlink" x="0px" y="0px"
	 viewBox="0 0 100 125" style="enable-background:new 0 0 100 125;" xml:space="preserve">
<style type="text/css">
	.st0{fill:#E989B8;}
</style>
<g>
	<path class="st0" d="M78.7,56.2c0-0.1,0-0.3-0.1-0.4l0,0l0,0c-0.1-0.1-0.1-0.2-0.2-0.3c0,0,0,0-0.1-0.1s-0.2-0.2-0.3-0.3l0,0
		c-0.1-0.1-0.2-0.1-0.3-0.2h-0.1c-0.1,0-0.3-0.1-0.4-0.1l0,0H59.3c0.2-0.3,0.4-0.6,0.4-1v-17c0-0.8-0.6-1.4-1.4-1.5l-8.5-0.6l0,0
		c-0.1,0-0.1,0-0.2,0H29.4c-1.4,0-2.6,1.2-2.6,2.6v18.1c-0.1,0-0.1,0.1-0.2,0.1l-7.8,5.7c0,0,0,0-0.1,0l0,0c0,0,0,0-0.1,0.1
		c-0.6,0.5-1,1.2-1,2v20.2c0,1.4,1.2,2.6,2.6,2.6h20.2c0.8,0,1.5-0.4,1.9-0.9l0,0l5.5-5.8v4.1c0,1.4,1.2,2.6,2.6,2.6h20.2
		c0.6,0,1.1-0.2,1.6-0.5c0.3-0.1,0.6-0.3,0.7-0.6l5.6-8.1c0.2-0.3,0.3-0.6,0.3-0.9V56.4v-0.1C78.8,56.2,78.8,56.2,78.7,56.2z
		 M70.8,60.8c-0.1,0-0.1,0-0.2,0H53.9l3.2-2.9h16.6L70.8,60.8z M56.8,53l-4.7,2.5V37.9l4.7,0.3V53z M29.8,37.7h19.3V57H29.8V37.7z
		 M27.3,58.8c0.5,0.7,1.2,1.2,2.1,1.2h12.5l-1.1,0.8c-0.1,0-0.2,0-0.3,0H24.6L27.3,58.8z M20.7,63.8H40v19.3H20.7V63.8z M43,80.2
		V63.4c0-0.1,0-0.3,0-0.4l3.8-3h2.8c0.3,0,0.7-0.1,1-0.2l-1.8,1.7l0,0c-0.6,0.5-1,1.1-1,1.9v11.7L43,80.2z M50.8,63.8h19.3v19.3
		H50.8V63.8z M73.1,79.4v-16c0-0.2,0-0.4-0.1-0.6l2.7-2.7v15.5L73.1,79.4z"/>
	<path class="st0" d="M30.4,68c-3,0-5.5,2.5-5.5,5.5s2.5,5.5,5.5,5.5s5.4-2.5,5.4-5.6S33.4,68,30.4,68z M30.4,76.9
		c-1.9,0-3.5-1.6-3.5-3.5s1.6-3.5,3.5-3.5s3.4,1.6,3.4,3.5S32.3,76.9,30.4,76.9z"/>
	<path class="st0" d="M61.4,69.5c-0.4-0.6-1.4-0.6-1.7,0l-4,6.9c-0.2,0.3-0.2,0.7,0,1s0.5,0.5,0.9,0.5h8c0.4,0,0.7-0.2,0.9-0.5
		c0.2-0.3,0.2-0.7,0-1L61.4,69.5z M58.2,75.9l2.3-3.9l2.3,3.9H58.2z"/>
	<path class="st0" d="M44.9,45.3l-2.7-0.5L41,42.3c-0.2-0.3-0.5-0.6-0.9-0.6s-0.7,0.2-0.9,0.5l-1.3,2.5L35.1,45
		c-0.4,0-0.7,0.3-0.8,0.7s0,0.8,0.2,1l1.9,2L36,51.4c-0.1,0.4,0.1,0.8,0.4,1c0.3,0.2,0.7,0.3,1.1,0.1l2.5-1.2l2.4,1.4
		c0.2,0.1,0.3,0.1,0.5,0.1s0.4-0.1,0.6-0.2c0.3-0.2,0.5-0.6,0.4-1l-0.4-2.8l2-1.9c0.3-0.3,0.4-0.7,0.3-1
		C45.6,45.6,45.3,45.3,44.9,45.3z M41.7,47.8c-0.2,0.2-0.4,0.6-0.3,0.9l0.2,1.3l-1.1-0.6c-0.2-0.1-0.3-0.1-0.5-0.1s-0.3,0-0.4,0.1
		L38.5,50l0.2-1.3c0.1-0.3,0-0.7-0.3-0.9l-0.9-0.9l1.3-0.2c0.3,0,0.6-0.2,0.8-0.5l0.6-1.1l0.5,1.2c0.1,0.3,0.4,0.5,0.7,0.6l1.3,0.2
		L41.7,47.8z"/>
</g>
</svg>
