<svg version="1.1" id="Layer_1" xmlns="http://www.w3.org/2000/svg" xmlns:xlink="http://www.w3.org/1999/xlink" x="0px" y="0px"
	 viewBox="0 0 100 125" style="enable-background:new 0 0 100 125;" xml:space="preserve">
<style type="text/css">
	.st0{fill:#3A3D72;}
</style>
<g>
	<path class="st0" d="M95.5,42l-7.6,45.7c-0.3,1.8-1.9,3.1-3.7,3.1H32.1c0,0-0.1,0-0.1,0.1c-0.3,0.1-0.6,0.1-1,0.1l0,0
		c-0.4,0-0.8-0.1-1.2-0.2c-0.2-0.1-0.3-0.2-0.5-0.3c-0.2-0.1-0.4-0.2-0.6-0.3c-0.1-0.1-0.3-0.3-0.4-0.4c-0.2-0.2-0.3-0.3-0.5-0.5
		c-0.1-0.2-0.2-0.4-0.3-0.5c-0.1-0.2-0.2-0.4-0.3-0.6L12.9,33.8H4.4c-2.1,0-3.8-1.7-3.8-3.8c0-2.1,1.7-3.8,3.8-3.8h11.4
		c1.7,0,3.2,1.2,3.7,2.8l2.3,8.6h70c1.1,0,2.2,0.5,2.9,1.3C95.4,39.8,95.7,40.9,95.5,42z M38.6,94.6c-4.2,0-7.6,3.4-7.6,7.6
		s3.4,7.6,7.6,7.6s7.6-3.4,7.6-7.6S42.8,94.6,38.6,94.6z M76.6,94.6c-4.2,0-7.6,3.4-7.6,7.6s3.4,7.6,7.6,7.6s7.6-3.4,7.6-7.6
		S80.8,94.6,76.6,94.6z"/>
</g>
</svg>
