<?xml version="1.0" encoding="utf-8"?>
<!-- Generator: Adobe Illustrator 27.0.0, SVG Export Plug-In . SVG Version: 6.00 Build 0)  -->
<svg version="1.1" id="Layer_1" xmlns="http://www.w3.org/2000/svg" xmlns:xlink="http://www.w3.org/1999/xlink" x="0px" y="0px"
	 viewBox="0 0 110 135" style="enable-background:new 0 0 110 135;" xml:space="preserve">
<style type="text/css">
	.st0{fill:#613191;}
</style>
<path class="st0" d="M15,93.9c0,0.1,0.1,0.1,0.1,0.2c0,0.1,0.1,0.1,0.1,0.2c0.1,0.1,0.2,0.2,0.3,0.2l0.1,0.1
	c0.1,0.1,0.3,0.1,0.5,0.1h77.4h0.1c0.2,0,0.3,0,0.4-0.1c0.1,0,0.1-0.1,0.2-0.1c0.1-0.1,0.2-0.1,0.3-0.2h0.1c0.1-0.1,0.1-0.1,0.1-0.2
	c0-0.1,0.1-0.1,0.1-0.2c0-0.1,0.1-0.2,0.1-0.3v-0.1v-0.1l0-51.8v-0.2c0-0.1,0-0.2-0.1-0.3c0-0.1-0.1-0.2-0.1-0.2
	c0-0.1,0-0.1-0.1-0.2c-0.1-0.1-0.1-0.1-0.2-0.2c-0.1,0-0.1-0.1-0.2-0.1c-0.1,0-0.1,0-0.2-0.1c-0.1,0-0.2-0.1-0.3-0.1h-0.1H16.2h-0.1
	c-0.1,0-0.2,0-0.3,0.1c-0.1,0-0.2,0-0.2,0.1c-0.1,0-0.1,0.1-0.2,0.1c-0.1,0.1-0.2,0.1-0.2,0.2c0,0-0.1,0.1-0.1,0.2
	c0,0.1-0.1,0.1-0.1,0.2c0,0.1,0,0.2-0.1,0.3v0.2v51.9v0.1C14.9,93.7,15,93.9,15,93.9L15,93.9z M19.7,92.3l27.2-23l7.1,6
	c0.2,0.2,0.5,0.3,0.8,0.3s0.6-0.1,0.8-0.3l7.1-6l27.2,23H19.7z M92.3,90.8L64.9,67.6l27.5-23.2v46.4H92.3z M90.1,42.9L54.9,72.6
	L19.7,42.9L90.1,42.9z M17.5,44.4L45,67.6L17.5,90.8V44.4z"/>
</svg>
