<?xml version="1.0" encoding="UTF-8"?>
<svg id="Layer_1" data-name="Layer 1" xmlns="http://www.w3.org/2000/svg" viewBox="0 0 86.49 82.74">
  <defs>
    <style>
      .cls-1 {
        fill: gold;
      }
    </style>
  </defs>
  <path class="cls-1" d="M47.67,2.75l9.54,19.33c.72,1.46,2.11,2.47,3.71,2.7l21.34,3.1c1.86,.27,3.41,1.57,3.98,3.36,.58,1.79,.1,3.75-1.25,5.06l-15.44,15.05h0c-1.16,1.13-1.69,2.77-1.42,4.37l3.64,21.25c.32,1.85-.45,3.72-1.96,4.82-1.52,1.11-3.54,1.25-5.2,.38l-19.08-10.03c-1.44-.75-3.16-.75-4.59,0l-19.08,10.04c-1.66,.87-3.68,.73-5.2-.38-1.52-1.1-2.28-2.97-1.96-4.82l3.64-21.25c.27-1.6-.25-3.24-1.42-4.37L1.49,36.31c-1.34-1.31-1.83-3.27-1.25-5.06,.58-1.79,2.13-3.09,3.98-3.36l21.34-3.1c1.61-.23,3-1.24,3.71-2.7L38.82,2.75c.83-1.69,2.55-2.75,4.43-2.75s3.59,1.07,4.43,2.75h0Z"/>
</svg>