<?xml version="1.0" encoding="utf-8"?>
<!-- Generator: Adobe Illustrator 27.0.0, SVG Export Plug-In . SVG Version: 6.00 Build 0)  -->
<svg version="1.1" id="Layer_1" xmlns="http://www.w3.org/2000/svg" xmlns:xlink="http://www.w3.org/1999/xlink" x="0px" y="0px"
	 viewBox="0 0 100 125" style="enable-background:new 0 0 100 125;" xml:space="preserve">
<style type="text/css">
	.st0{fill-rule:evenodd;clip-rule:evenodd;fill:#FD800A;}
</style>
<path class="st0" d="M21.4,42.9v30.4c0,7.4,6,13.4,13.4,13.4h30.4c7.4,0,13.4-6,13.4-13.4V42.9c0-7.4-6-13.4-13.4-13.4H34.8
	C27.4,29.5,21.4,35.5,21.4,42.9z M26.6,44.1c0-5.2,4.2-9.3,9.3-9.3H64c5.2,0,9.3,4.2,9.3,9.3v28.1c0,5.2-4.2,9.3-9.3,9.3H36
	c-5.2,0-9.3-4.2-9.3-9.3V44.1z M41.9,58.1c0,4.5,3.6,8.1,8.1,8.1s8.1-3.6,8.1-8.1S54.5,50,50,50S41.9,53.6,41.9,58.1z M37.2,58.1
	c0-7.1,5.8-12.8,12.8-12.8S62.8,51,62.8,58.1S57.1,70.9,50,70.9C42.9,70.9,37.2,65.2,37.2,58.1z M64.7,40.3c1.8,0,3.3,1.5,3.3,3.3
	c0,1.8-1.5,3.3-3.3,3.3c-1.8,0-3.3-1.5-3.3-3.3C61.4,41.8,62.9,40.3,64.7,40.3z"/>
</svg>
