<?xml version="1.0" encoding="utf-8"?>
<!-- Generator: Adobe Illustrator 27.0.0, SVG Export Plug-In . SVG Version: 6.00 Build 0)  -->
<svg version="1.1" id="Layer_1" xmlns="http://www.w3.org/2000/svg" xmlns:xlink="http://www.w3.org/1999/xlink" x="0px" y="0px"
	 viewBox="0 0 87.8 77.6" style="enable-background:new 0 0 87.8 77.6;" xml:space="preserve">
<style type="text/css">
	.st0{fill:#21BAED;enable-background:new    ;}
</style>
<path class="st0" d="M87.8,55V6.7c0-0.7-0.7-1.2-1.3-0.9L47.8,18.6c-0.4,0.1-0.7,0.5-0.7,1v44.1c-4.2-4.5-12.6-4-16.7,0.3
	c-5.9,5.9-0.6,13.9,7.6,13.7c6,0.1,11.9-4.6,11.2-9.7V31l36.7-12.2v32c-5.7-6.3-20-2.5-19.2,6.7C68.5,68.6,88.5,66.2,87.8,55
	L87.8,55L87.8,55z"/>
<path class="st0" d="M28.3,14.4c13.1,3.2,7.7,14.4,4.4,18.8c-0.3,0.4-0.3,1,0.1,1.3c0.4,0.3,1,0.3,1.3,0c0.4-0.3,9-8.1,8.9-15
	c-0.1-10.7-11.5-8.5-12-18.6c-0.1-1.1-1.7-1.3-2-0.2l-2.6,12.2c0,0-6.4,29.9-6.4,30C17,37.7,8.7,36.4,3.7,39.6
	c-4.5,2.8-5,8.6-1.1,12.2c5.5,5.4,17.6,3.5,18.6-4.4L28.3,14.4L28.3,14.4z"/>
</svg>
