<?xml version="1.0" encoding="UTF-8"?>
<svg id="Layer_1" data-name="Layer 1" xmlns="http://www.w3.org/2000/svg" viewBox="0 0 87.83 77.64">
  <defs>
    <style>
      .cls-1 {
        fill: #efeded;
        opacity: .25;
      }
    </style>
  </defs>
  <path class="cls-1" d="M87.81,55V6.65c.02-.66-.69-1.18-1.32-.95l-38.68,12.89c-.41,.14-.68,.52-.68,.95V63.66c-4.15-4.45-12.6-3.98-16.74,.26-5.9,5.9-.6,13.86,7.55,13.71,6.04,.14,11.86-4.61,11.19-9.74V31l36.68-12.23v31.99c-5.66-6.32-20.02-2.54-19.19,6.71,1.87,11.11,21.92,8.69,21.19-2.48h0Z"/>
  <path class="cls-1" d="M28.26,14.37c13.07,3.23,7.67,14.42,4.44,18.83-.31,.41-.26,.99,.12,1.34,.38,.35,.96,.35,1.34,0,.37-.33,8.96-8.06,8.89-14.99-.12-10.74-11.47-8.48-11.96-18.62-.1-1.15-1.69-1.3-1.98-.17l-2.58,12.16s-6.36,29.94-6.36,29.95c-3.13-5.21-11.5-6.51-16.43-3.23-4.52,2.8-5.04,8.63-1.06,12.17,5.47,5.39,17.65,3.53,18.57-4.39L28.28,14.37h-.02Z"/>
</svg>