<?xml version="1.0" encoding="UTF-8"?>
<svg id="Layer_1" data-name="Layer 1" xmlns="http://www.w3.org/2000/svg" viewBox="0 0 90 42.73">
  <defs>
    <style>
      .cls-1 {
        fill: #efeded;
      }

      .cls-2 {
        opacity: .25;
      }
    </style>
  </defs>
  <g class="cls-2">
    <g>
      <path class="cls-1" d="M69.82,16.23c.02-.11,.06-.22,.15-.3,4.21-3.97,8.65-7.75,13.24-11.31-5.26,3.05-10.38,6.37-15.27,9.94-.14,1.78-.22,3.58-.22,5.37,.39-.73,.8-1.44,1.21-2.13,.3-.52,.6-1.04,.9-1.57,0,0,0,0,0,0Z"/>
      <path class="cls-1" d="M62.86,9.79c1.8,1.34,2.88,2.2,4.62,3.79,5.7-4.13,11.69-7.95,17.85-11.39-7.58,2.07-15.27,4.34-22.48,7.6Z"/>
      <path class="cls-1" d="M69.84,18.33c-.14,.25-.29,.49-.43,.74l1.4-1.41c-.13-.12-.26-.23-.39-.35-.19,.34-.39,.68-.58,1.02Z"/>
      <path class="cls-1" d="M75.3,20.92L87.29,2.86c-5.68,4.19-11.14,8.74-16.28,13.56,1.73,1.53,3.22,3.2,4.29,4.51Z"/>
      <path class="cls-1" d="M38.1,32.31s0,0,0,0c-.62,.44-1.18,.83-1.73,1.2,0,0,0,0,0,0-.24,.16-.31,.49-.14,.74,.1,.15,.27,.23,.44,.23,.1,0,.21-.03,.3-.09,.55-.37,1.13-.77,1.76-1.22,0,0,0,0,0,0,.24-.17,.29-.5,.12-.74-.17-.24-.5-.29-.74-.12Z"/>
      <path class="cls-1" d="M41.53,29.81l-1.71,1.26c-.14,.1-.22,.26-.22,.43,0,.11,.03,.22,.1,.31,.1,.14,.26,.22,.43,.22,.11,0,.22-.03,.31-.1l1.71-1.26c.14-.1,.21-.26,.21-.43,0-.11-.03-.22-.1-.31-.17-.23-.5-.28-.74-.11Z"/>
      <path class="cls-1" d="M34.6,34.67c-.16,.1-.3,.19-.44,.27-.46,.28-.92,.55-1.37,.8-.17,.1-.27,.28-.27,.46,0,.09,.02,.18,.07,.26,.1,.17,.28,.27,.46,.27,.09,0,.18-.02,.26-.07,.46-.26,.93-.53,1.41-.82,.14-.08,.28-.18,.45-.28,.16-.1,.25-.27,.25-.45,0-.1-.03-.19-.08-.28-.16-.25-.48-.32-.73-.17Z"/>
      <path class="cls-1" d="M44.98,27.3c-.31,.22-.55,.39-.78,.55-.29,.21-.6,.43-.96,.69-.14,.1-.22,.26-.22,.43,0,.11,.03,.22,.1,.31,.1,.14,.26,.22,.43,.22,.11,0,.22-.03,.31-.1,0,0,.02-.02,.03-.02,0,0,.01-.01,.02-.02,0,0,0,0,0,0,0,0,0,0,0,0,.03-.02,.05-.04,.07-.05,0,0,0,0,0,0,.29-.21,.56-.4,.81-.58t0,0c.22-.16,.47-.33,.77-.54h0c.15-.11,.22-.27,.22-.44,0-.1-.03-.21-.1-.3-.17-.24-.5-.3-.74-.13Z"/>
      <path class="cls-1" d="M27.06,38.26h0c-.67,.21-1.35,.39-2,.53,0,0,0,0,0,0h0c-.29,.06-.47,.34-.41,.63,.05,.25,.27,.42,.52,.42,.04,0,.07,0,.11-.01,.69-.15,1.39-.33,2.09-.55,0,0,0,0,0,0,.28-.09,.44-.38,.35-.66-.09-.28-.38-.43-.66-.35Z"/>
      <path class="cls-1" d="M23.02,39.12h-.09c-.59,.07-1.19,.1-1.78,.1h-.2s0,0,0,0c-.29,0-.53,.23-.53,.53h0c0,.29,.23,.53,.52,.53h.2c.63,0,1.26-.03,1.89-.1h.08c.28-.03,.48-.26,.48-.53,0-.02,0-.03,0-.05-.03-.29-.28-.51-.57-.48Z"/>
      <path class="cls-1" d="M30.93,36.71c-.64,.31-1.28,.59-1.9,.84,0,0,0,0-.01,0-.27,.11-.4,.42-.29,.69,.08,.21,.28,.33,.49,.33,.07,0,.13-.01,.2-.04,.65-.26,1.31-.56,1.98-.88,.19-.09,.3-.28,.3-.48,0-.08-.02-.16-.05-.23-.13-.26-.44-.37-.71-.25Z"/>
      <path class="cls-1" d="M63.56,16.8h0c-.64,.28-1.29,.58-1.94,.89h0c-.26,.12-.38,.44-.25,.7,.09,.19,.28,.31,.48,.31,.07,0,.15-.02,.22-.05,.65-.3,1.29-.6,1.93-.88,.27-.12,.39-.43,.27-.7-.12-.27-.43-.39-.7-.27Z"/>
      <path class="cls-1" d="M59.69,18.61c-.65,.32-1.29,.64-1.91,.96-.18,.09-.29,.28-.29,.47,0,.08,.02,.17,.06,.24,.09,.18,.28,.29,.47,.29,.08,0,.16-.02,.24-.06,.61-.32,1.25-.63,1.89-.95h0c.26-.13,.37-.45,.24-.71-.13-.26-.44-.37-.71-.24Z"/>
      <path class="cls-1" d="M89.9,.22c-.13-.18-.35-.26-.57-.2-9.27,2.49-18.85,5.05-27.73,9.18-.17,.08-.28,.24-.3,.43-.02,.19,.06,.37,.21,.48,2.32,1.73,3.37,2.52,5.37,4.35-.21,2.52-.28,5.08-.21,7.6,0,.21,.14,.4,.33,.48,.06,.03,.13,.04,.19,.04,.14,0,.28-.06,.38-.16l3.99-4.03c1.38,1.36,2.54,2.73,3.35,3.76,.1,.13,.25,.2,.42,.2,0,0,.01,0,.02,0,.17,0,.33-.1,.42-.24L89.91,.82c.12-.18,.12-.42-.01-.6Zm-22.41,13.36c-1.74-1.59-2.83-2.45-4.62-3.79,7.21-3.26,14.9-5.53,22.48-7.6-6.16,3.44-12.15,7.25-17.85,11.39Zm.23,6.35c0-1.79,.08-3.59,.22-5.37,4.9-3.56,10.02-6.89,15.27-9.94-4.59,3.56-9.03,7.34-13.24,11.31-.09,.08-.13,.19-.15,.3,0,0,0,0,0,0-.3,.53-.6,1.05-.9,1.57-.4,.69-.81,1.4-1.21,2.13Zm1.69-.85c.14-.25,.28-.49,.43-.74,.19-.33,.39-.68,.58-1.02,.13,.12,.26,.23,.39,.35l-1.4,1.41Zm5.89,1.85c-1.07-1.31-2.57-2.98-4.29-4.51,5.14-4.82,10.61-9.37,16.28-13.56l-11.99,18.06Z"/>
      <path class="cls-1" d="M48.53,24.92c-.6,.39-1.21,.78-1.78,1.17,0,0,0,0,0,0h0c-.24,.16-.31,.49-.14,.74,.1,.15,.27,.23,.44,.23,.1,0,.2-.03,.29-.09,.57-.38,1.17-.78,1.77-1.17,.16-.1,.24-.27,.24-.44,0-.1-.03-.2-.08-.29-.16-.25-.48-.32-.73-.16Z"/>
      <path class="cls-1" d="M52.17,22.67c-.62,.37-1.23,.74-1.83,1.11-.16,.1-.25,.27-.25,.45,0,.1,.03,.19,.08,.28,.1,.16,.27,.25,.45,.25,.1,0,.19-.03,.28-.08,.59-.37,1.2-.73,1.81-1.1,.17-.1,.26-.28,.26-.46,0-.09-.02-.19-.07-.27-.15-.25-.47-.33-.73-.19Z"/>
      <path class="cls-1" d="M55.89,20.57c-.63,.34-1.26,.69-1.87,1.03-.17,.1-.27,.28-.27,.46,0,.09,.02,.18,.07,.26,.1,.17,.28,.27,.46,.27,.09,0,.18-.02,.26-.07,.6-.34,1.22-.68,1.85-1.02,.18-.1,.28-.28,.28-.47,0-.08-.02-.17-.06-.25-.14-.26-.46-.35-.72-.22Z"/>
      <path class="cls-1" d="M16.84,28.71c.25-.75,.38-1.51,.4-2.24h0c0-.3-.23-.53-.52-.54h-.01c-.29,0-.52,.23-.53,.52-.01,.63-.13,1.28-.34,1.93-.02,.06-.03,.11-.03,.17,0,.22,.14,.43,.36,.5,.05,.02,.11,.03,.16,.03,.22,0,.43-.14,.5-.36Z"/>
      <path class="cls-1" d="M8.42,30.65c-.07-.28-.37-.45-.65-.38-.24,.06-.39,.28-.39,.51,0,.04,0,.09,.02,.14,0,0,0,0,0,0,.19,.71,.45,1.4,.77,2.07,0,0,0,0,0,0h0c.09,.19,.28,.3,.48,.3,.08,0,.16-.02,.23-.05,.26-.13,.37-.44,.25-.71-.3-.61-.53-1.25-.71-1.89,0,0,0,0,0,0Z"/>
      <path class="cls-1" d="M8.1,25.03c.07,.03,.15,.05,.23,.05,.2,0,.39-.11,.48-.3,.29-.6,.66-1.16,1.1-1.6,0,0,0,0,0,0h0c.2-.21,.2-.54-.01-.75-.21-.2-.54-.2-.75,.01h0s0,0,0,0c-.51,.52-.95,1.17-1.29,1.88,0,0,0,0,0,0-.03,.07-.05,.15-.05,.23,0,.2,.11,.39,.3,.48Z"/>
      <path class="cls-1" d="M2.16,40.76s0,0,0,0c-.61,.34-1.24,.66-1.86,.97,0,0,0,0,0,0H.3c-.26,.13-.37,.45-.24,.71,.09,.19,.28,.29,.47,.29,.08,0,.16-.02,.23-.06,.63-.31,1.27-.64,1.91-.99,.26-.14,.35-.46,.21-.72-.14-.26-.46-.35-.72-.21Z"/>
      <path class="cls-1" d="M11.28,22.18c.06,0,.12,0,.17-.03,.26-.09,.53-.15,.81-.16,.3-.02,.64,.01,.97,.1,0,0,0,0,0,0h0c.28,.08,.57-.09,.65-.37,.08-.28-.09-.57-.37-.65-.43-.12-.88-.16-1.32-.13-.37,.02-.73,.1-1.09,.22-.22,.08-.36,.28-.36,.5,0,.06,0,.12,.03,.17,.08,.22,.28,.35,.5,.35Z"/>
      <path class="cls-1" d="M14.84,23h0c.46,.44,.82,.98,1.04,1.56,.08,.21,.28,.34,.5,.34,.06,0,.12-.01,.18-.03,.21-.08,.34-.28,.34-.5,0-.06-.01-.12-.03-.19-.27-.73-.72-1.4-1.3-1.95-.21-.2-.55-.19-.75,.02-.2,.21-.19,.55,.02,.75h0Z"/>
      <path class="cls-1" d="M5.76,38.58c-.59,.39-1.19,.77-1.77,1.13-.16,.1-.26,.27-.26,.45,0,.09,.02,.19,.08,.28,.1,.16,.27,.25,.45,.25,.09,0,.19-.03,.27-.08,.6-.36,1.21-.75,1.81-1.15,.15-.1,.24-.27,.24-.44,0-.1-.03-.2-.09-.29-.16-.24-.49-.31-.74-.15Z"/>
      <path class="cls-1" d="M7.6,29.22c.29-.02,.52-.27,.5-.56,0-.16-.01-.33-.01-.5h0c0-.51,.04-1.01,.13-1.5h0c.05-.29-.14-.57-.43-.62-.29-.05-.56,.14-.61,.43-.1,.55-.15,1.11-.15,1.68h0c0,.19,0,.38,.02,.56h0s0,0,0,0h0c.02,.28,.25,.5,.53,.5,0,0,.02,0,.03,0Z"/>
      <path class="cls-1" d="M14.94,37.98c-.63-.28-1.24-.6-1.8-.96-.25-.16-.57-.09-.73,.16-.06,.09-.08,.19-.08,.28,0,.18,.09,.35,.25,.45,.61,.39,1.27,.74,1.95,1.04,.07,.03,.14,.04,.21,.04,.2,0,.4-.12,.49-.32,.03-.07,.04-.14,.04-.21,0-.2-.12-.4-.32-.49Z"/>
      <path class="cls-1" d="M15.71,30.02c-.25-.15-.58-.08-.73,.17-.33,.54-.73,1.07-1.22,1.63-.09,.1-.13,.22-.13,.35,0,.15,.06,.29,.18,.4,.1,.09,.22,.13,.35,.13,.15,0,.3-.06,.4-.18,.52-.6,.96-1.18,1.32-1.77,.05-.09,.08-.18,.08-.28,0-.18-.09-.35-.25-.45Z"/>
      <path class="cls-1" d="M11.34,35.62s.09-.05,.12-.08c.45-.4,.9-.81,1.34-1.22l.24-.23c.11-.1,.16-.24,.16-.38s-.05-.26-.15-.37c-.2-.21-.54-.22-.75-.01l-.24,.22s0,0,0,0c-.43,.4-.86,.8-1.3,1.19,0,0,0,0-.01,0-.05,.04-.09,.09-.12,.14-.16-.19-.32-.39-.47-.6-.17-.24-.51-.28-.74-.11-.14,.1-.21,.26-.21,.43,0,.11,.03,.22,.1,.31,.44,.6,.94,1.16,1.48,1.66,.1,.09,.23,.14,.36,.14,.14,0,.28-.06,.39-.17,.09-.1,.14-.23,.14-.36,0-.14-.06-.29-.17-.39-.06-.06-.12-.12-.19-.18Z"/>
      <path class="cls-1" d="M9.15,36.09c-.55,.44-1.11,.87-1.67,1.28-.14,.1-.22,.26-.22,.43,0,.11,.03,.22,.1,.31,.1,.14,.27,.22,.43,.22,.11,0,.22-.03,.31-.1,.57-.42,1.15-.86,1.71-1.31,.13-.11,.2-.26,.2-.41,0-.12-.04-.23-.12-.33-.18-.23-.52-.27-.75-.08Z"/>
      <path class="cls-1" d="M18.89,39.07c-.68-.09-1.36-.23-2.01-.41-.28-.08-.57,.09-.65,.37-.01,.05-.02,.09-.02,.14,0,.23,.16,.45,.39,.51,.7,.19,1.42,.34,2.15,.43,.02,0,.05,0,.07,0,.26,0,.49-.19,.52-.46,0-.02,0-.05,0-.07,0-.26-.19-.49-.46-.53Z"/>
    </g>
  </g>
</svg>