<svg version="1.1" id="Layer_1" xmlns="http://www.w3.org/2000/svg" xmlns:xlink="http://www.w3.org/1999/xlink" x="0px" y="0px"
	 viewBox="0 0 100 125" style="enable-background:new 0 0 100 125;" xml:space="preserve">
<style type="text/css">
	.st0{opacity:0.25;fill:#EFEDED;}
</style>
<path class="st0" d="M76.2,102.6c2.7,0,5.2-1,7.1-2.9l0,0c1.9-1.9,3-4.5,3-7.2s-1.1-5.3-3-7.2L37.6,39.3L39,38c0.4-0.4,0.4-1,0-1.4
	c-0.4-0.4-1-0.4-1.4,0L20.4,53.6c-0.4,0.4-0.4,1,0,1.4c0.2,0.2,0.5,0.3,0.7,0.3s0.5-0.1,0.7-0.3l1.4-1.4l46,45.9
	C71.1,101.5,73.6,102.6,76.2,102.6z M66,84.5c-0.4-0.4-1-0.4-1.4,0l-3.9,3.9l-2.9-2.9l3.9-3.9c0.4-0.4,0.4-1,0-1.4s-1-0.4-1.4,0
	l-3.9,3.9l-2.9-3l3.9-3.9c0.4-0.4,0.4-1,0-1.4s-1-0.4-1.4,0l-3.9,3.9l-2.9-2.9l3.9-3.9c0.4-0.4,0.4-1,0-1.4s-1-0.4-1.4,0l-3.9,3.9
	l-2.9-2.9l3.9-3.9c0.4-0.4,0.4-1,0-1.4s-1-0.4-1.4,0l-3.9,3.9l-2.9-2.9l3.9-3.9c0.4-0.4,0.4-1,0-1.4s-1-0.4-1.4,0l-3.9,3.9l-2.9-2.9
	l3.9-3.9c0.4-0.4,0.4-1,0-1.4s-1-0.4-1.4,0l-3.9,3.9L32,59.5l3.9-3.9c0.4-0.4,0.4-1,0-1.4s-1-0.4-1.4,0l-3.9,3.9l-5.9-5.9l11.5-11.5
	l45.9,45.9c1.5,1.5,2.4,3.6,2.4,5.8c0,2.1-0.8,4.2-2.3,5.7l0,0c-1.5,1.5-3.6,2.4-5.8,2.4s-4.2-0.8-5.8-2.4L62,89.7l3.9-3.9
	C66.3,85.5,66.3,84.8,66,84.5z"/>
<path class="st0" d="M25.2,33.5c0,2.5,2,4.5,4.5,4.5s4.5-2,4.5-4.5s-2-4.5-4.5-4.5S25.2,30.9,25.2,33.5z M32.2,33.5
	c0,1.4-1.1,2.5-2.5,2.5s-2.5-1.1-2.5-2.5c0-1.4,1.1-2.5,2.5-2.5S32.2,32,32.2,33.5z"/>
<path class="st0" d="M43.1,37.2c0,2.5,2,4.5,4.5,4.5s4.5-2,4.5-4.5s-2-4.5-4.5-4.5S43.1,34.7,43.1,37.2z M47.6,34.5
	c1.4,0,2.5,1.1,2.5,2.5c0,1.4-1.1,2.5-2.5,2.5s-2.5-1.1-2.5-2.5C45.1,35.8,46.3,34.5,47.6,34.5z"/>
<path class="st0" d="M23.5,71.6c2.5,0,4.5-2,4.5-4.5s-2-4.5-4.5-4.5s-4.5,2-4.5,4.5C19,69.5,21,71.6,23.5,71.6z M23.5,64.5
	c1.4,0,2.5,1.1,2.5,2.5s-1.1,2.5-2.5,2.5S21,68.4,21,67S22.1,64.5,23.5,64.5z"/>
<path class="st0" d="M15.8,29.8c0,2,1.6,3.6,3.6,3.6s3.6-1.6,3.6-3.6s-1.6-3.6-3.6-3.6S15.8,27.8,15.8,29.8z M21,29.8
	c0,0.9-0.7,1.6-1.6,1.6s-1.6-0.7-1.6-1.6s0.7-1.6,1.6-1.6S21,28.9,21,29.8z"/>
<path class="st0" d="M11.6,60.1c0,2,1.6,3.6,3.6,3.6s3.6-1.6,3.6-3.6s-1.6-3.6-3.6-3.6S11.6,58.2,11.6,60.1z M16.8,60.1
	c0,0.9-0.7,1.6-1.6,1.6c-0.9,0-1.6-0.7-1.6-1.6c0-0.9,0.7-1.6,1.6-1.6S16.8,59.3,16.8,60.1z"/>
<path class="st0" d="M25.8,41.8c0-3.2-2.6-5.8-5.8-5.8s-5.8,2.6-5.8,5.8s2.6,5.8,5.8,5.8S25.8,45,25.8,41.8z M16.2,41.8
	c0-2.1,1.7-3.8,3.8-3.8s3.8,1.7,3.8,3.8c0,2.1-1.7,3.8-3.8,3.8S16.2,43.8,16.2,41.8z"/>
</svg>
