<svg version="1.1" id="Layer_1" xmlns="http://www.w3.org/2000/svg" xmlns:xlink="http://www.w3.org/1999/xlink" x="0px" y="0px"
	 viewBox="0 0 110 135" style="enable-background:new 0 0 110 135;" xml:space="preserve">
<style type="text/css">
	.st0{fill:#3A3D72;}
</style>
<path class="st0" d="M68,15c-8.5,0-16.6,3.3-22.6,9.4c-6.1,6-9.4,14-9.4,22.6c0,7.4,2.5,14.2,6.7,19.6L11.2,98.2
	c-1.6,1.6-1.6,4.1,0,5.7c1.6,1.6,4.1,1.6,5.6,0l31.6-31.6C53.8,76.5,60.6,79,68,79c8.8,0,16.8-3.6,22.6-9.4
	c5.8-5.8,9.4-13.8,9.4-22.6C100,29.4,85.6,15,68,15L68,15z M68,71c-6.6,0-12.6-2.7-17-7c-4.3-4.3-7-10.3-7-17c0-6.4,2.5-12.4,7-17
	c4.5-4.5,10.6-7,17-7c13.2,0,24,10.8,24,24S81.2,71,68,71z"/>
</svg>
