<?xml version="1.0" encoding="utf-8"?>
<!-- Generator: Adobe Illustrator 27.0.0, SVG Export Plug-In . SVG Version: 6.00 Build 0)  -->
<svg version="1.1" id="Layer_1" xmlns="http://www.w3.org/2000/svg" xmlns:xlink="http://www.w3.org/1999/xlink" x="0px" y="0px"
	 viewBox="0 0 110 135" style="enable-background:new 0 0 110 135;" xml:space="preserve">
<style type="text/css">
	.st0{opacity:0.25;fill:#EFEDED;}
</style>
<path class="st0" d="M78.7,104.5c-1.3,0-2.6-0.3-3.8-0.9l-19.1-10v0c-0.5-0.3-1.2-0.3-1.7,0l-19.1,10h0c-2.7,1.4-6,1.1-8.5-0.7
	c-2.5-1.8-3.7-4.8-3.2-7.8L27,73.8c0.1-0.6-0.1-1.2-0.5-1.6L11.1,57.2c-2.2-2.2-2.9-5.3-2-8.2c0.9-2.9,3.4-5,6.4-5.5l21.3-3.1v0
	c0.6-0.1,1.1-0.5,1.4-1L47.8,20c1.4-2.7,4.2-4.4,7.2-4.4s5.8,1.7,7.2,4.4l9.5,19.3v0c0.3,0.5,0.8,0.9,1.4,1l21.3,3.1v0
	c3,0.4,5.6,2.6,6.5,5.5c0.9,2.9,0.2,6.1-2,8.3L83.5,72.2c-0.4,0.4-0.6,1-0.5,1.6l3.6,21.2l0,0c0.4,2.3-0.3,4.7-1.8,6.5
	C83.3,103.4,81.1,104.5,78.7,104.5L78.7,104.5z M55,87.1c1.3,0,2.6,0.3,3.8,0.9l19.1,10v0c0.6,0.3,1.4,0.3,1.9-0.1
	c0.6-0.4,0.8-1.1,0.7-1.8l-3.6-21.2c-0.4-2.6,0.4-5.3,2.3-7.1l15.4-15h0c0.5-0.5,0.7-1.2,0.5-1.9c-0.2-0.7-0.8-1.1-1.5-1.2
	l-21.3-3.1h0c-2.6-0.4-4.9-2-6.1-4.4l-9.5-19.3c-0.3-0.6-0.9-1-1.6-1s-1.3,0.4-1.6,1l-9.5,19.3v0c-1.2,2.4-3.4,4-6.1,4.4l-21.3,3.1
	c-0.7,0.1-1.2,0.6-1.5,1.2c-0.2,0.7,0,1.4,0.5,1.9l15.4,15c1.9,1.9,2.8,4.5,2.3,7.1l-3.6,21.2c-0.1,0.7,0.2,1.4,0.7,1.8
	c0.6,0.4,1.3,0.5,1.9,0.1l19.1-10C52.4,87.4,53.7,87.1,55,87.1L55,87.1z"/>
</svg>
