<?xml version="1.0" encoding="utf-8"?>
<!-- Generator: Adobe Illustrator 27.0.0, SVG Export Plug-In . SVG Version: 6.00 Build 0)  -->
<svg version="1.1" id="Layer_1" xmlns="http://www.w3.org/2000/svg" xmlns:xlink="http://www.w3.org/1999/xlink" x="0px" y="0px"
	 viewBox="0 0 100 125" style="enable-background:new 0 0 100 125;" xml:space="preserve">
<style type="text/css">
	.st0{opacity:0.1;}
	.st1{fill:#F5F5F5;}
</style>
<g class="st0">
	<path class="st1" d="M83.5,57.4c0-0.1,0-0.3-0.1-0.4l0,0l0,0c-0.1-0.1-0.1-0.2-0.2-0.3c0,0,0,0-0.1-0.1s-0.2-0.2-0.3-0.3l0,0
		c-0.1-0.1-0.2-0.1-0.3-0.2h-0.1c-0.1,0-0.3-0.1-0.4-0.1l0,0H64.1c0.2-0.3,0.4-0.6,0.4-1V38c0-0.8-0.6-1.4-1.4-1.5l-8.5-0.6l0,0
		c-0.1,0-0.1,0-0.2,0H34.2c-1.4,0-2.6,1.2-2.6,2.6v18.1c-0.1,0-0.1,0.1-0.2,0.1l-7.8,5.7c0,0,0,0-0.1,0l0,0c0,0,0,0-0.1,0.1
		c-0.6,0.5-1,1.2-1,2v20.2c0,1.4,1.2,2.6,2.6,2.6h20.2c0.8,0,1.5-0.4,1.9-0.9l0,0l5.5-5.8v4.1c0,1.4,1.2,2.6,2.6,2.6h20.2
		c0.6,0,1.1-0.2,1.6-0.5c0.3-0.1,0.6-0.3,0.7-0.6l5.6-8.1c0.2-0.3,0.3-0.6,0.3-0.9V57.6L83.5,57.4C83.6,57.4,83.6,57.4,83.5,57.4z
		 M75.6,62c-0.1,0-0.1,0-0.2,0H58.7l3.2-2.9h16.6L75.6,62z M61.6,54.2l-4.7,2.5V39.1l4.7,0.3V54.2z M34.6,38.9h19.3v19.3H34.6V38.9z
		 M32.1,60c0.5,0.7,1.2,1.2,2.1,1.2h12.5L45.6,62c-0.1,0-0.2,0-0.3,0H29.4L32.1,60z M25.5,65h19.3v19.3H25.5V65z M47.8,81.4V64.6
		c0-0.1,0-0.3,0-0.4l3.8-3h2.8c0.3,0,0.7-0.1,1-0.2l-1.8,1.7l0,0c-0.6,0.5-1,1.1-1,1.9v11.7L47.8,81.4z M55.6,65h19.3v19.3H55.6V65z
		 M77.9,80.6v-16c0-0.2,0-0.4-0.1-0.6l2.7-2.7v15.5L77.9,80.6z"/>
	<path class="st1" d="M35.2,69.2c-3,0-5.5,2.5-5.5,5.5s2.5,5.5,5.5,5.5s5.4-2.5,5.4-5.6S38.2,69.2,35.2,69.2z M35.2,78.1
		c-1.9,0-3.5-1.6-3.5-3.5s1.6-3.5,3.5-3.5s3.4,1.6,3.4,3.5S37.1,78.1,35.2,78.1z"/>
	<path class="st1" d="M66.2,70.7c-0.4-0.6-1.4-0.6-1.7,0l-4,6.9c-0.2,0.3-0.2,0.7,0,1s0.5,0.5,0.9,0.5h8c0.4,0,0.7-0.2,0.9-0.5
		s0.2-0.7,0-1L66.2,70.7z M63,77.1l2.3-3.9l2.3,3.9H63z"/>
	<path class="st1" d="M49.7,46.5L47,46l-1.2-2.5c-0.2-0.3-0.5-0.6-0.9-0.6s-0.7,0.2-0.9,0.5l-1.3,2.5l-2.8,0.3
		c-0.4,0-0.7,0.3-0.8,0.7s0,0.8,0.2,1l1.9,2l-0.4,2.7c-0.1,0.4,0.1,0.8,0.4,1c0.3,0.2,0.7,0.3,1.1,0.1l2.5-1.2l2.4,1.4
		c0.2,0.1,0.3,0.1,0.5,0.1s0.4-0.1,0.6-0.2c0.3-0.2,0.5-0.6,0.4-1L48.3,50l2-1.9c0.3-0.3,0.4-0.7,0.3-1
		C50.4,46.8,50.1,46.5,49.7,46.5z M46.5,49c-0.2,0.2-0.4,0.6-0.3,0.9l0.2,1.3l-1.1-0.6c-0.2-0.1-0.3-0.1-0.5-0.1s-0.3,0-0.4,0.1
		l-1.1,0.6l0.2-1.3c0.1-0.3,0-0.7-0.3-0.9l-0.9-0.9l1.3-0.2c0.3,0,0.6-0.2,0.8-0.5l0.6-1.1l0.5,1.2c0.1,0.3,0.4,0.5,0.7,0.6l1.3,0.2
		L46.5,49z"/>
</g>
</svg>
