<?xml version="1.0" encoding="utf-8"?>
<!-- Generator: Adobe Illustrator 27.0.0, SVG Export Plug-In . SVG Version: 6.00 Build 0)  -->
<svg version="1.1"
	 id="Layer_1" xmlns:sodipodi="http://sodipodi.sourceforge.net/DTD/sodipodi-0.dtd" xmlns:rdf="http://www.w3.org/1999/02/22-rdf-syntax-ns#" xmlns:svg="http://www.w3.org/2000/svg" xmlns:dc="http://purl.org/dc/elements/1.1/" xmlns:cc="http://creativecommons.org/ns#" xmlns:inkscape="http://www.inkscape.org/namespaces/inkscape"
	 xmlns="http://www.w3.org/2000/svg" xmlns:xlink="http://www.w3.org/1999/xlink" x="0px" y="0px" viewBox="0 0 50 62.5"
	 style="enable-background:new 0 0 50 62.5;" xml:space="preserve">
<style type="text/css">
	.st0{opacity:0.1;fill:#F5F5F5;}
</style>
<path class="st0" d="M11.8,5L2.5,15L3,15.7L25,45l22.5-30L38.2,5H11.8z M12.7,7h24.6l7.6,8.2L25,41.7L5.1,15.2L12.7,7z"/>
<path class="st0" d="M3.8,14.1v2h42.4v-2H3.8z"/>
<path class="st0" d="M18.9,14.9L17,15.3L24,43.6l1.9-0.5L18.9,14.9z"/>
<path class="st0" d="M31.1,14.9L24,43.1l1.9,0.5L33,15.3L31.1,14.9z"/>
<path class="st0" d="M13.1,5.5l-1.7,1.1l5.7,9.1l1.7-1.1L13.1,5.5z"/>
<path class="st0" d="M36.9,5.5l-5.7,9.1l1.7,1.1l5.7-9.1L36.9,5.5z"/>
<path class="st0" d="M24.2,5.4l-7.1,9.1l1.6,1.2l7.1-9.1L24.2,5.4z"/>
<path class="st0" d="M25.8,5.4l-1.6,1.2l7.1,9.1l1.6-1.2L25.8,5.4z"/>
</svg>
