<?xml version="1.0" encoding="utf-8"?>
<!-- Generator: Adobe Illustrator 27.0.0, SVG Export Plug-In . SVG Version: 6.00 Build 0)  -->
<svg version="1.1" id="Layer_1" xmlns="http://www.w3.org/2000/svg" xmlns:xlink="http://www.w3.org/1999/xlink" x="0px" y="0px"
	 viewBox="0 0 24 24" style="enable-background:new 0 0 24 24;" xml:space="preserve">
<style type="text/css">
	.st0{opacity:0.1;fill:#F5F5F5;}
</style>
<path class="st0" d="M18.2,6.8c-1.2,2-2.4,4-3.1,5c-0.8,1.3-1.1,1.5-2.7,2.1l-0.2-0.1c0.4-1.8,0.5-2.1,1.6-3.1
	C14.8,9.9,16.5,8.3,18.2,6.8z M8,18l0.9,0.7c-0.2,2.5-2.4,3.5-4.2,3.2C6.4,20.4,6.5,18.3,8,18z M22.7,0.2c0,0-7.9,6.9-10.2,9
	c-1.8,1.7-1.8,2.5-2.4,5.3l2,1.7c2.7-1.1,3.4-1.2,4.8-3.4c1.7-2.7,7-11.7,7-11.7C24.3,0.4,23.4-0.4,22.7,0.2z M8.6,16
	C3.5,16,5.5,21.9,0,21.4c3.3,4.5,11.4,3,10.8-3.6C10.8,17.8,8.6,16,8.6,16z"/>
</svg>
