<?xml version="1.0" encoding="utf-8"?>
<!-- Generator: Adobe Illustrator 27.0.0, SVG Export Plug-In . SVG Version: 6.00 Build 0)  -->
<svg version="1.1" id="Layer_1" xmlns="http://www.w3.org/2000/svg" xmlns:xlink="http://www.w3.org/1999/xlink" x="0px" y="0px"
	 viewBox="0 0 100 125" style="enable-background:new 0 0 100 125;" xml:space="preserve">
<style type="text/css">
	.st0{opacity:0.1;fill:#F5F5F5;}
</style>
<path class="st0" d="M95,15.1L84.9,5c-2.7-2.7-7-2.7-9.7,0L13.4,66.8c-0.1,0.1-0.1,0.1-0.2,0.2c0,0,0,0.1-0.1,0.1
	c-0.1,0.1-0.2,0.3-0.2,0.4c0,0,0,0,0,0L3.1,94.3c-0.4,1,0.2,2.2,1.2,2.6c0.4,0.2,0.9,0.2,1.4,0l26.8-9.8c0,0,0,0,0,0
	c0.1-0.1,0.3-0.1,0.4-0.2c0,0,0.1,0,0.1-0.1c0.1-0.1,0.1-0.1,0.2-0.2L95,24.8C97.7,22.1,97.7,17.8,95,15.1z M66.7,19.2l5.7,5.7
	L23.3,73.9l-5.7-5.7L66.7,19.2z M31.8,82.4l-5.7-5.7l49.1-49.1l5.7,5.7L31.8,82.4z M8.4,91.6l7.2-19.8l12.5,12.5L8.4,91.6z M92.2,22
	l-8.5,8.5L69.5,16.3L78,7.8c1.1-1.1,2.9-1.1,4.1,0l10.1,10.1C93.3,19,93.3,20.8,92.2,22z"/>
</svg>
