<?xml version="1.0" encoding="utf-8"?>
<!-- Generator: Adobe Illustrator 27.0.0, SVG Export Plug-In . SVG Version: 6.00 Build 0)  -->
<svg version="1.1" id="Layer_1" xmlns="http://www.w3.org/2000/svg" xmlns:xlink="http://www.w3.org/1999/xlink" x="0px" y="0px"
	 viewBox="0 0 100 125" style="enable-background:new 0 0 100 125;" xml:space="preserve">
<style type="text/css">
	.st0{opacity:0.1;fill:#F5F5F5;}
</style>
<path class="st0" d="M76.1,88.5c2.7,0,5.2-1,7.1-2.9l0,0c1.9-1.9,3-4.5,3-7.2s-1.1-5.3-3-7.2L37.4,25.3l1.4-1.4c0.4-0.4,0.4-1,0-1.4
	s-1-0.4-1.4,0L20.2,39.6c-0.4,0.4-0.4,1,0,1.4c0.2,0.2,0.5,0.3,0.7,0.3s0.5-0.1,0.7-0.3l1.4-1.4l46,45.9
	C70.9,87.4,73.4,88.5,76.1,88.5z M65.8,70.4c-0.4-0.4-1-0.4-1.4,0l-3.9,3.9l-2.9-2.9l3.9-3.9c0.4-0.4,0.4-1,0-1.4s-1-0.4-1.4,0
	L56.2,70l-2.9-3l3.9-3.9c0.4-0.4,0.4-1,0-1.4s-1-0.4-1.4,0l-3.9,3.9L49,62.7l3.9-3.9c0.4-0.4,0.4-1,0-1.4s-1-0.4-1.4,0l-3.9,3.9
	l-2.9-2.9l3.9-3.9c0.4-0.4,0.4-1,0-1.4s-1-0.4-1.4,0L43.3,57l-2.9-2.9l3.9-3.9c0.4-0.4,0.4-1,0-1.4s-1-0.4-1.4,0L39,52.7l-2.9-2.9
	l3.9-3.9c0.4-0.4,0.4-1,0-1.4s-1-0.4-1.4,0l-3.9,3.9l-2.9-2.9l3.9-3.9c0.4-0.4,0.4-1,0-1.4s-1-0.4-1.4,0l-3.9,3.9l-5.9-5.9L36,26.7
	l45.9,45.9c1.5,1.5,2.4,3.6,2.4,5.8c0,2.1-0.8,4.2-2.3,5.7l0,0c-1.5,1.5-3.6,2.4-5.8,2.4s-4.2-0.8-5.8-2.4l-8.5-8.5l3.9-3.9
	C66.2,71.4,66.2,70.7,65.8,70.4z"/>
<path class="st0" d="M25,19.4c0,2.5,2,4.5,4.5,4.5s4.5-2,4.5-4.5s-2-4.5-4.5-4.5S25,16.9,25,19.4z M32,19.4c0,1.4-1.1,2.5-2.5,2.5
	S27,20.8,27,19.4s1.1-2.5,2.5-2.5S32,18,32,19.4z"/>
<path class="st0" d="M42.9,23.1c0,2.5,2,4.5,4.5,4.5s4.5-2,4.5-4.5s-2-4.5-4.5-4.5S42.9,20.6,42.9,23.1z M47.4,20.5
	c1.4,0,2.5,1.1,2.5,2.5s-1.1,2.5-2.5,2.5s-2.5-1.1-2.5-2.5C44.9,21.7,46.1,20.5,47.4,20.5z"/>
<path class="st0" d="M23.3,57.5c2.5,0,4.5-2,4.5-4.5s-2-4.5-4.5-4.5s-4.5,2-4.5,4.5C18.8,55.4,20.8,57.5,23.3,57.5z M23.3,50.4
	c1.4,0,2.5,1.1,2.5,2.5s-1.1,2.5-2.5,2.5s-2.5-1.1-2.5-2.5S21.9,50.4,23.3,50.4z"/>
<path class="st0" d="M15.6,15.7c0,2,1.6,3.6,3.6,3.6s3.6-1.6,3.6-3.6s-1.6-3.6-3.6-3.6S15.6,13.7,15.6,15.7z M20.8,15.7
	c0,0.9-0.7,1.6-1.6,1.6s-1.6-0.7-1.6-1.6s0.7-1.6,1.6-1.6S20.8,14.8,20.8,15.7z"/>
<path class="st0" d="M11.4,46.1c0,2,1.6,3.6,3.6,3.6s3.6-1.6,3.6-3.6S17,42.5,15,42.5S11.4,44.2,11.4,46.1z M16.6,46.1
	c0,0.9-0.7,1.6-1.6,1.6c-0.9,0-1.6-0.7-1.6-1.6c0-0.9,0.7-1.6,1.6-1.6C15.9,44.5,16.6,45.3,16.6,46.1z"/>
<path class="st0" d="M25.6,27.7c0-3.2-2.6-5.8-5.8-5.8S14,24.5,14,27.7s2.6,5.8,5.8,5.8S25.6,30.9,25.6,27.7z M16,27.7
	c0-2.1,1.7-3.8,3.8-3.8s3.8,1.7,3.8,3.8s-1.7,3.8-3.8,3.8S16,29.8,16,27.7z"/>
</svg>
