<?xml version="1.0" encoding="utf-8"?>
<!-- Generator: Adobe Illustrator 27.0.0, SVG Export Plug-In . SVG Version: 6.00 Build 0)  -->
<svg version="1.1" id="Layer_1" xmlns="http://www.w3.org/2000/svg" xmlns:xlink="http://www.w3.org/1999/xlink" x="0px" y="0px"
	 viewBox="0 0 100 125" style="enable-background:new 0 0 100 125;" xml:space="preserve">
<style type="text/css">
	.st0{opacity:0.1;}
	.st1{fill:#F5F5F5;}
</style>
<g class="st0">
	<g>
		<path class="st1" d="M74.8,44.9c0-0.1,0.1-0.2,0.2-0.3c4.2-4,8.7-7.8,13.2-11.3c-5.3,3-10.4,6.4-15.3,9.9
			c-0.1,1.8-0.2,3.6-0.2,5.4c0.4-0.7,0.8-1.4,1.2-2.1C74.2,45.9,74.5,45.4,74.8,44.9C74.8,44.9,74.8,44.9,74.8,44.9z"/>
		<path class="st1" d="M67.9,38.4c1.8,1.3,2.9,2.2,4.6,3.8c5.7-4.1,11.7-8,17.9-11.4C82.8,32.9,75.1,35.2,67.9,38.4z"/>
		<path class="st1" d="M74.8,47c-0.1,0.2-0.3,0.5-0.4,0.7l1.4-1.4c-0.1-0.1-0.3-0.2-0.4-0.3C75.2,46.3,75,46.6,74.8,47z"/>
		<path class="st1" d="M80.3,49.6l12-18.1C86.6,35.7,81.1,40.2,76,45C77.7,46.6,79.2,48.2,80.3,49.6z"/>
		<path class="st1" d="M43.1,60.9C43.1,60.9,43.1,60.9,43.1,60.9c-0.6,0.4-1.2,0.8-1.7,1.2c0,0,0,0,0,0c-0.2,0.2-0.3,0.5-0.1,0.7
			c0.1,0.2,0.3,0.2,0.4,0.2c0.1,0,0.2,0,0.3-0.1c0.6-0.4,1.1-0.8,1.8-1.2c0,0,0,0,0,0c0.2-0.2,0.3-0.5,0.1-0.7
			C43.7,60.8,43.3,60.8,43.1,60.9z"/>
		<path class="st1" d="M46.5,58.4l-1.7,1.3c-0.1,0.1-0.2,0.3-0.2,0.4c0,0.1,0,0.2,0.1,0.3c0.1,0.1,0.3,0.2,0.4,0.2
			c0.1,0,0.2,0,0.3-0.1l1.7-1.3c0.1-0.1,0.2-0.3,0.2-0.4c0-0.1,0-0.2-0.1-0.3C47.1,58.3,46.8,58.3,46.5,58.4z"/>
		<path class="st1" d="M39.6,63.3c-0.2,0.1-0.3,0.2-0.4,0.3c-0.5,0.3-0.9,0.5-1.4,0.8c-0.2,0.1-0.3,0.3-0.3,0.5c0,0.1,0,0.2,0.1,0.3
			c0.1,0.2,0.3,0.3,0.5,0.3c0.1,0,0.2,0,0.3-0.1c0.5-0.3,0.9-0.5,1.4-0.8c0.1-0.1,0.3-0.2,0.4-0.3c0.2-0.1,0.2-0.3,0.2-0.5
			c0-0.1,0-0.2-0.1-0.3C40.2,63.2,39.8,63.1,39.6,63.3z"/>
		<path class="st1" d="M50,55.9c-0.3,0.2-0.6,0.4-0.8,0.5c-0.3,0.2-0.6,0.4-1,0.7c-0.1,0.1-0.2,0.3-0.2,0.4c0,0.1,0,0.2,0.1,0.3
			c0.1,0.1,0.3,0.2,0.4,0.2c0.1,0,0.2,0,0.3-0.1c0,0,0,0,0,0c0,0,0,0,0,0c0,0,0,0,0,0c0,0,0,0,0,0c0,0,0,0,0.1-0.1c0,0,0,0,0,0
			c0.3-0.2,0.6-0.4,0.8-0.6c0,0,0,0,0,0c0.2-0.2,0.5-0.3,0.8-0.5l0,0c0.1-0.1,0.2-0.3,0.2-0.4c0-0.1,0-0.2-0.1-0.3
			C50.6,55.8,50.2,55.8,50,55.9z"/>
		<path class="st1" d="M32.1,66.9L32.1,66.9c-0.7,0.2-1.4,0.4-2,0.5c0,0,0,0,0,0c0,0,0,0,0,0c-0.3,0.1-0.5,0.3-0.4,0.6
			c0.1,0.2,0.3,0.4,0.5,0.4c0,0,0.1,0,0.1,0c0.7-0.1,1.4-0.3,2.1-0.6c0,0,0,0,0,0c0.3-0.1,0.4-0.4,0.3-0.7
			C32.6,67,32.3,66.8,32.1,66.9z"/>
		<path class="st1" d="M28,67.7L28,67.7c-0.7,0.1-1.3,0.1-1.9,0.1l-0.2,0h0c-0.3,0-0.5,0.2-0.5,0.5v0c0,0.3,0.2,0.5,0.5,0.5l0.2,0
			c0.6,0,1.3,0,1.9-0.1l0.1,0c0.3,0,0.5-0.3,0.5-0.5c0,0,0,0,0,0C28.6,67.9,28.3,67.7,28,67.7z"/>
		<path class="st1" d="M35.9,65.3c-0.6,0.3-1.3,0.6-1.9,0.8c0,0,0,0,0,0c-0.3,0.1-0.4,0.4-0.3,0.7c0.1,0.2,0.3,0.3,0.5,0.3
			c0.1,0,0.1,0,0.2,0c0.6-0.3,1.3-0.6,2-0.9c0.2-0.1,0.3-0.3,0.3-0.5c0-0.1,0-0.2-0.1-0.2C36.5,65.3,36.2,65.2,35.9,65.3z"/>
		<path class="st1" d="M68.6,45.4C68.6,45.4,68.6,45.4,68.6,45.4c-0.6,0.3-1.3,0.6-1.9,0.9c0,0,0,0,0,0c0,0,0,0,0,0
			c-0.3,0.1-0.4,0.4-0.3,0.7c0.1,0.2,0.3,0.3,0.5,0.3c0.1,0,0.2,0,0.2,0c0.6-0.3,1.3-0.6,1.9-0.9c0.3-0.1,0.4-0.4,0.3-0.7
			C69.1,45.4,68.8,45.3,68.6,45.4z"/>
		<path class="st1" d="M64.7,47.2c-0.6,0.3-1.3,0.6-1.9,1c-0.2,0.1-0.3,0.3-0.3,0.5c0,0.1,0,0.2,0.1,0.2c0.1,0.2,0.3,0.3,0.5,0.3
			c0.1,0,0.2,0,0.2-0.1c0.6-0.3,1.2-0.6,1.9-1l0,0l0,0c0.3-0.1,0.4-0.4,0.2-0.7C65.3,47.2,65,47.1,64.7,47.2z"/>
		<path class="st1" d="M94.9,28.9c-0.1-0.2-0.4-0.3-0.6-0.2c-9.3,2.5-18.8,5.1-27.7,9.2c-0.2,0.1-0.3,0.2-0.3,0.4
			c0,0.2,0.1,0.4,0.2,0.5c2.3,1.7,3.4,2.5,5.4,4.4c-0.2,2.5-0.3,5.1-0.2,7.6c0,0.2,0.1,0.4,0.3,0.5c0.1,0,0.1,0,0.2,0
			c0.1,0,0.3-0.1,0.4-0.2l4-4c1.4,1.4,2.5,2.7,3.4,3.8c0.1,0.1,0.3,0.2,0.4,0.2c0,0,0,0,0,0c0.2,0,0.3-0.1,0.4-0.2l14.1-21.3
			C95,29.3,95,29,94.9,28.9z M72.5,42.2c-1.7-1.6-2.8-2.4-4.6-3.8c7.2-3.3,14.9-5.5,22.5-7.6C84.2,34.3,78.2,38.1,72.5,42.2z
			 M72.7,48.6c0-1.8,0.1-3.6,0.2-5.4c4.9-3.6,10-6.9,15.3-9.9c-4.6,3.6-9,7.3-13.2,11.3c-0.1,0.1-0.1,0.2-0.2,0.3c0,0,0,0,0,0
			c-0.3,0.5-0.6,1.1-0.9,1.6C73.5,47.1,73.1,47.8,72.7,48.6z M74.4,47.7c0.1-0.2,0.3-0.5,0.4-0.7c0.2-0.3,0.4-0.7,0.6-1
			c0.1,0.1,0.3,0.2,0.4,0.3L74.4,47.7z M80.3,49.6c-1.1-1.3-2.6-3-4.3-4.5c5.1-4.8,10.6-9.4,16.3-13.6L80.3,49.6z"/>
		<path class="st1" d="M53.5,53.6c-0.6,0.4-1.2,0.8-1.8,1.2c0,0,0,0,0,0c0,0,0,0,0,0c-0.2,0.2-0.3,0.5-0.1,0.7
			c0.1,0.2,0.3,0.2,0.4,0.2c0.1,0,0.2,0,0.3-0.1c0.6-0.4,1.2-0.8,1.8-1.2c0.2-0.1,0.2-0.3,0.2-0.4c0-0.1,0-0.2-0.1-0.3
			C54.1,53.5,53.8,53.4,53.5,53.6z"/>
		<path class="st1" d="M57.2,51.3c-0.6,0.4-1.2,0.7-1.8,1.1c-0.2,0.1-0.3,0.3-0.3,0.5c0,0.1,0,0.2,0.1,0.3c0.1,0.2,0.3,0.3,0.5,0.3
			c0.1,0,0.2,0,0.3-0.1c0.6-0.4,1.2-0.7,1.8-1.1c0.2-0.1,0.3-0.3,0.3-0.5c0-0.1,0-0.2-0.1-0.3C57.7,51.2,57.4,51.2,57.2,51.3z"/>
		<path class="st1" d="M60.9,49.2c-0.6,0.3-1.3,0.7-1.9,1c-0.2,0.1-0.3,0.3-0.3,0.5c0,0.1,0,0.2,0.1,0.3c0.1,0.2,0.3,0.3,0.5,0.3
			c0.1,0,0.2,0,0.3-0.1c0.6-0.3,1.2-0.7,1.9-1c0.2-0.1,0.3-0.3,0.3-0.5c0-0.1,0-0.2-0.1-0.3C61.5,49.2,61.1,49.1,60.9,49.2z"/>
		<path class="st1" d="M21.8,57.3c0.2-0.8,0.4-1.5,0.4-2.2v0c0-0.3-0.2-0.5-0.5-0.5c0,0,0,0,0,0c-0.3,0-0.5,0.2-0.5,0.5
			c0,0.6-0.1,1.3-0.3,1.9c0,0.1,0,0.1,0,0.2c0,0.2,0.1,0.4,0.4,0.5c0.1,0,0.1,0,0.2,0C21.6,57.7,21.8,57.6,21.8,57.3z"/>
		<path class="st1" d="M13.4,59.3c-0.1-0.3-0.4-0.5-0.6-0.4c-0.2,0.1-0.4,0.3-0.4,0.5c0,0,0,0.1,0,0.1c0,0,0,0,0,0
			c0.2,0.7,0.4,1.4,0.8,2.1c0,0,0,0,0,0c0,0,0,0,0,0c0.1,0.2,0.3,0.3,0.5,0.3c0.1,0,0.2,0,0.2-0.1c0.3-0.1,0.4-0.4,0.2-0.7
			C13.8,60.6,13.6,59.9,13.4,59.3C13.4,59.3,13.4,59.3,13.4,59.3z"/>
		<path class="st1" d="M13.1,53.7c0.1,0,0.1,0.1,0.2,0.1c0.2,0,0.4-0.1,0.5-0.3c0.3-0.6,0.7-1.2,1.1-1.6c0,0,0,0,0,0l0,0
			c0.2-0.2,0.2-0.5,0-0.7c-0.2-0.2-0.5-0.2-0.7,0l0,0c0,0,0,0,0,0c-0.5,0.5-1,1.2-1.3,1.9c0,0,0,0,0,0c0,0.1-0.1,0.2-0.1,0.2
			C12.8,53.4,12.9,53.6,13.1,53.7z"/>
		<path class="st1" d="M7.2,69.4C7.2,69.4,7.2,69.4,7.2,69.4c-0.6,0.3-1.2,0.7-1.9,1c0,0,0,0,0,0l0,0c-0.3,0.1-0.4,0.4-0.2,0.7
			c0.1,0.2,0.3,0.3,0.5,0.3c0.1,0,0.2,0,0.2-0.1c0.6-0.3,1.3-0.6,1.9-1c0.3-0.1,0.4-0.5,0.2-0.7C7.7,69.3,7.4,69.2,7.2,69.4z"/>
		<path class="st1" d="M16.3,50.8c0.1,0,0.1,0,0.2,0c0.3-0.1,0.5-0.1,0.8-0.2c0.3,0,0.6,0,1,0.1c0,0,0,0,0,0h0
			c0.3,0.1,0.6-0.1,0.6-0.4c0.1-0.3-0.1-0.6-0.4-0.6c-0.4-0.1-0.9-0.2-1.3-0.1c-0.4,0-0.7,0.1-1.1,0.2c-0.2,0.1-0.4,0.3-0.4,0.5
			c0,0.1,0,0.1,0,0.2C15.9,50.7,16.1,50.8,16.3,50.8z"/>
		<path class="st1" d="M19.8,51.6L19.8,51.6c0.5,0.4,0.8,1,1,1.6c0.1,0.2,0.3,0.3,0.5,0.3c0.1,0,0.1,0,0.2,0
			c0.2-0.1,0.3-0.3,0.3-0.5c0-0.1,0-0.1,0-0.2c-0.3-0.7-0.7-1.4-1.3-2c-0.2-0.2-0.5-0.2-0.7,0C19.6,51.1,19.6,51.4,19.8,51.6
			L19.8,51.6z"/>
		<path class="st1" d="M10.8,67.2C10.2,67.6,9.6,68,9,68.3c-0.2,0.1-0.3,0.3-0.3,0.5c0,0.1,0,0.2,0.1,0.3c0.1,0.2,0.3,0.3,0.5,0.3
			c0.1,0,0.2,0,0.3-0.1c0.6-0.4,1.2-0.8,1.8-1.2c0.2-0.1,0.2-0.3,0.2-0.4c0-0.1,0-0.2-0.1-0.3C11.3,67.1,11,67,10.8,67.2z"/>
		<path class="st1" d="M12.6,57.9c0.3,0,0.5-0.3,0.5-0.6c0-0.2,0-0.3,0-0.5v0c0-0.5,0-1,0.1-1.5c0,0,0,0,0,0c0,0,0,0,0,0
			c0.1-0.3-0.1-0.6-0.4-0.6c-0.3,0-0.6,0.1-0.6,0.4c-0.1,0.5-0.1,1.1-0.1,1.7v0c0,0.2,0,0.4,0,0.6v0h0v0
			C12.1,57.6,12.3,57.9,12.6,57.9C12.6,57.9,12.6,57.9,12.6,57.9z"/>
		<path class="st1" d="M19.9,66.6c-0.6-0.3-1.2-0.6-1.8-1c-0.2-0.2-0.6-0.1-0.7,0.2c-0.1,0.1-0.1,0.2-0.1,0.3c0,0.2,0.1,0.3,0.2,0.4
			c0.6,0.4,1.3,0.7,2,1c0.1,0,0.1,0,0.2,0c0.2,0,0.4-0.1,0.5-0.3c0-0.1,0-0.1,0-0.2C20.3,66.9,20.1,66.7,19.9,66.6z"/>
		<path class="st1" d="M20.7,58.6c-0.2-0.2-0.6-0.1-0.7,0.2c-0.3,0.5-0.7,1.1-1.2,1.6c-0.1,0.1-0.1,0.2-0.1,0.3
			c0,0.1,0.1,0.3,0.2,0.4c0.1,0.1,0.2,0.1,0.3,0.1c0.1,0,0.3-0.1,0.4-0.2c0.5-0.6,1-1.2,1.3-1.8c0.1-0.1,0.1-0.2,0.1-0.3
			C21,58.9,20.9,58.8,20.7,58.6z"/>
		<path class="st1" d="M16.3,64.2c0,0,0.1,0,0.1-0.1c0.5-0.4,0.9-0.8,1.3-1.2l0.2-0.2c0.1-0.1,0.2-0.2,0.2-0.4c0-0.1,0-0.3-0.1-0.4
			c-0.2-0.2-0.5-0.2-0.7,0l-0.2,0.2c0,0,0,0,0,0c-0.4,0.4-0.9,0.8-1.3,1.2c0,0,0,0,0,0c0,0-0.1,0.1-0.1,0.1
			c-0.2-0.2-0.3-0.4-0.5-0.6c-0.2-0.2-0.5-0.3-0.7-0.1c-0.1,0.1-0.2,0.3-0.2,0.4c0,0.1,0,0.2,0.1,0.3c0.4,0.6,0.9,1.2,1.5,1.7
			c0.1,0.1,0.2,0.1,0.4,0.1c0.1,0,0.3-0.1,0.4-0.2c0.1-0.1,0.1-0.2,0.1-0.4c0-0.1-0.1-0.3-0.2-0.4C16.5,64.4,16.4,64.3,16.3,64.2z"
			/>
		<path class="st1" d="M14.2,64.7c-0.5,0.4-1.1,0.9-1.7,1.3c-0.1,0.1-0.2,0.3-0.2,0.4c0,0.1,0,0.2,0.1,0.3c0.1,0.1,0.3,0.2,0.4,0.2
			c0.1,0,0.2,0,0.3-0.1c0.6-0.4,1.1-0.9,1.7-1.3c0.1-0.1,0.2-0.3,0.2-0.4c0-0.1,0-0.2-0.1-0.3C14.7,64.6,14.4,64.5,14.2,64.7z"/>
		<path class="st1" d="M23.9,67.7c-0.7-0.1-1.4-0.2-2-0.4c-0.3-0.1-0.6,0.1-0.6,0.4c0,0,0,0.1,0,0.1c0,0.2,0.2,0.4,0.4,0.5
			c0.7,0.2,1.4,0.3,2.2,0.4c0,0,0,0,0.1,0c0.3,0,0.5-0.2,0.5-0.5c0,0,0,0,0-0.1C24.3,68,24.2,67.7,23.9,67.7z"/>
	</g>
</g>
</svg>
