<?xml version="1.0" encoding="utf-8"?>
<!-- Generator: Adobe Illustrator 27.0.0, SVG Export Plug-In . SVG Version: 6.00 Build 0)  -->
<svg version="1.1" id="Layer_1" xmlns="http://www.w3.org/2000/svg" xmlns:xlink="http://www.w3.org/1999/xlink" x="0px" y="0px"
	 viewBox="0 0 110 135" style="enable-background:new 0 0 110 135;" xml:space="preserve">
<style type="text/css">
	.st0{opacity:0.1;fill:#F5F5F5;}
</style>
<path class="st0" d="M59.4,21.4L69,40.7c0.7,1.5,2.1,2.5,3.7,2.7L94,46.5c1.9,0.3,3.4,1.6,4,3.4c0.6,1.8,0.1,3.8-1.2,5.1L81.3,70
	l0,0c-1.2,1.1-1.7,2.8-1.4,4.4l3.6,21.2c0.3,1.9-0.4,3.7-2,4.8c-1.5,1.1-3.5,1.2-5.2,0.4l-19.1-10c-1.4-0.8-3.2-0.8-4.6,0l-19.1,10
	c-1.7,0.9-3.7,0.7-5.2-0.4c-1.5-1.1-2.3-3-2-4.8l3.6-21.2c0.3-1.6-0.3-3.2-1.4-4.4l-15.4-15c-1.3-1.3-1.8-3.3-1.2-5.1
	c0.6-1.8,2.1-3.1,4-3.4l21.3-3.1c1.6-0.2,3-1.2,3.7-2.7l9.5-19.3c0.8-1.7,2.5-2.8,4.4-2.8S58.6,19.7,59.4,21.4L59.4,21.4z"/>
</svg>
