<?xml version="1.0" encoding="utf-8"?>
<!-- Generator: Adobe Illustrator 27.0.0, SVG Export Plug-In . SVG Version: 6.00 Build 0)  -->
<svg version="1.1" id="Layer_1" xmlns="http://www.w3.org/2000/svg" xmlns:xlink="http://www.w3.org/1999/xlink" x="0px" y="0px"
	 viewBox="0 0 110 135" style="enable-background:new 0 0 110 135;" xml:space="preserve">
<style type="text/css">
	.st0{opacity:0.1;}
	.st1{fill:#F5F5F5;}
</style>
<g class="st0">
	<path class="st1" d="M55,73.6c7.5,0,13.6-6.1,13.6-13.6S62.5,46.4,55,46.4S41.4,52.5,41.4,60S47.5,73.6,55,73.6z M55,50.4
		c5.3,0,9.6,4.3,9.6,9.6s-4.3,9.6-9.6,9.6s-9.6-4.3-9.6-9.6S49.7,50.4,55,50.4z"/>
	<path class="st1" d="M55,44.4c1.1,0,2-0.9,2-2v-9.1c0-1.1-0.9-2-2-2s-2,0.9-2,2v9.1C53,43.5,53.9,44.4,55,44.4z"/>
	<path class="st1" d="M57,86.7v-9.1c0-1.1-0.9-2-2-2s-2,0.9-2,2v9.1c0,1.1,0.9,2,2,2S57,87.8,57,86.7z"/>
	<path class="st1" d="M28.3,62h9.1c1.1,0,2-0.9,2-2s-0.9-2-2-2h-9.1c-1.1,0-2,0.9-2,2S27.2,62,28.3,62z"/>
	<path class="st1" d="M70.6,60c0,1.1,0.9,2,2,2h9.1c1.1,0,2-0.9,2-2s-0.9-2-2-2h-9.1C71.5,58,70.6,58.9,70.6,60z"/>
	<path class="st1" d="M67.5,49.5c0.5,0,1-0.2,1.4-0.6l6.4-6.4c0.8-0.8,0.8-2.1,0-2.8c-0.8-0.8-2.1-0.8-2.8,0l-6.4,6.4
		c-0.8,0.8-0.8,2.1,0,2.8C66.4,49.3,67,49.5,67.5,49.5L67.5,49.5z"/>
	<path class="st1" d="M37.5,80.3l6.4-6.4c0.8-0.8,0.8-2.1,0-2.8c-0.8-0.8-2.1-0.8-2.8,0l-6.4,6.4c-0.8,0.8-0.8,2.1,0,2.8
		c0.4,0.4,0.9,0.6,1.4,0.6C36.6,80.9,37.1,80.7,37.5,80.3L37.5,80.3z"/>
	<path class="st1" d="M41.1,48.9c0.4,0.4,0.9,0.6,1.4,0.6s1-0.2,1.4-0.6c0.8-0.8,0.8-2.1,0-2.8l-6.4-6.4c-0.8-0.8-2.1-0.8-2.8,0
		c-0.8,0.8-0.8,2.1,0,2.8L41.1,48.9z"/>
	<path class="st1" d="M73.9,80.9c0.5,0,1-0.2,1.4-0.6c0.8-0.8,0.8-2.1,0-2.8l-6.4-6.4c-0.8-0.8-2.1-0.8-2.8,0
		c-0.8,0.8-0.8,2.1,0,2.8l6.4,6.4C72.9,80.7,73.4,80.9,73.9,80.9L73.9,80.9z"/>
</g>
</svg>
