<?xml version="1.0" encoding="utf-8"?>
<!-- Generator: Adobe Illustrator 27.0.0, SVG Export Plug-In . SVG Version: 6.00 Build 0)  -->
<svg version="1.1" id="visual" xmlns="http://www.w3.org/2000/svg" xmlns:xlink="http://www.w3.org/1999/xlink" x="0px" y="0px"
	 viewBox="0 0 900 200" style="enable-background:new 0 0 900 200;" xml:space="preserve">
<style type="text/css">
	.st0{fill:#FDD76B;}
</style>
<path class="st0" d="M0,119l18.8,0.3c18.9,0.4,56.5,1,94,4.2s74.9,8.8,112.4,14.2c37.5,5.3,75.1,10.3,112.6,10.6
	c37.5,0.4,74.9-4,112.4-7.6c37.5-3.7,75.1-6.7,112.6-10.2s74.9-7.5,112.4-9.8c37.5-2.4,75.1-3,112.6-0.2s74.9,9.2,93.5,12.3L900,136
	v65h-18.7c-18.6,0-56,0-93.5,0s-75.1,0-112.6,0s-74.9,0-112.4,0s-75.1,0-112.6,0s-74.9,0-112.4,0s-75.1,0-112.6,0s-74.9,0-112.4,0
	s-75.1,0-94,0H0V119z"/>
</svg>
