<svg id="visual" viewBox="0 0 900 350" width="900" height="350" xmlns="http://www.w3.org/2000/svg" xmlns:xlink="http://www.w3.org/1999/xlink" version="1.1"><path d="M0 346L10.7 342C21.3 338 42.7 330 64.2 325.7C85.7 321.3 107.3 320.7 128.8 320.7C150.3 320.7 171.7 321.3 193 325.8C214.3 330.3 235.7 338.7 257 339.3C278.3 340 299.7 333 321.2 331.5C342.7 330 364.3 334 385.8 333.2C407.3 332.3 428.7 326.7 450 323.7C471.3 320.7 492.7 320.3 514.2 323.3C535.7 326.3 557.3 332.7 578.8 334.3C600.3 336 621.7 333 643 334.3C664.3 335.7 685.7 341.3 707 342.7C728.3 344 749.7 341 771.2 337C792.7 333 814.3 328 835.8 326.3C857.3 324.7 878.7 326.3 889.3 327.2L900 328L900 351L889.3 351C878.7 351 857.3 351 835.8 351C814.3 351 792.7 351 771.2 351C749.7 351 728.3 351 707 351C685.7 351 664.3 351 643 351C621.7 351 600.3 351 578.8 351C557.3 351 535.7 351 514.2 351C492.7 351 471.3 351 450 351C428.7 351 407.3 351 385.8 351C364.3 351 342.7 351 321.2 351C299.7 351 278.3 351 257 351C235.7 351 214.3 351 193 351C171.7 351 150.3 351 128.8 351C107.3 351 85.7 351 64.2 351C42.7 351 21.3 351 10.7 351L0 351Z" fill="#ffffff" stroke-linecap="round" stroke-linejoin="miter"></path></svg>