<svg id="visual" viewBox="0 0 900 120" width="900" height="120" xmlns="http://www.w3.org/2000/svg" xmlns:xlink="http://www.w3.org/1999/xlink" version="1.1"><path d="M0 51L15 50.3C30 49.7 60 48.3 90 51.3C120 54.3 150 61.7 180 64.8C210 68 240 67 270 64.5C300 62 330 58 360 54.5C390 51 420 48 450 48.8C480 49.7 510 54.3 540 57.2C570 60 600 61 630 60.8C660 60.7 690 59.3 720 59.3C750 59.3 780 60.7 810 57.8C840 55 870 48 885 44.5L900 41L900 0L885 0C870 0 840 0 810 0C780 0 750 0 720 0C690 0 660 0 630 0C600 0 570 0 540 0C510 0 480 0 450 0C420 0 390 0 360 0C330 0 300 0 270 0C240 0 210 0 180 0C150 0 120 0 90 0C60 0 30 0 15 0L0 0Z" fill="#613191" stroke-linecap="round" stroke-linejoin="miter"></path></svg>