<?xml version="1.0" standalone="no"?>
<svg xmlns:xlink="http://www.w3.org/1999/xlink" id="wave" style="transform:rotate(180deg); transition: 0.3s" viewBox="0 0 1440 410" version="1.1" xmlns="http://www.w3.org/2000/svg"><defs><linearGradient id="sw-gradient-0" x1="0" x2="0" y1="1" y2="0"><stop stop-color="rgba(97, 49, 145, 1)" offset="0%"/><stop stop-color="rgba(97, 49, 145, 1)" offset="100%"/></linearGradient></defs><path style="transform:translate(0, 0px); opacity:1" fill="url(#sw-gradient-0)" d="M0,205L60,198.2C120,191,240,178,360,198.2C480,219,600,273,720,280.2C840,287,960,246,1080,218.7C1200,191,1320,178,1440,150.3C1560,123,1680,82,1800,75.2C1920,68,2040,96,2160,143.5C2280,191,2400,260,2520,239.2C2640,219,2760,109,2880,109.3C3000,109,3120,219,3240,232.3C3360,246,3480,164,3600,109.3C3720,55,3840,27,3960,75.2C4080,123,4200,246,4320,246C4440,246,4560,123,4680,75.2C4800,27,4920,55,5040,75.2C5160,96,5280,109,5400,157.2C5520,205,5640,287,5760,307.5C5880,328,6000,287,6120,280.2C6240,273,6360,301,6480,273.3C6600,246,6720,164,6840,150.3C6960,137,7080,191,7200,232.3C7320,273,7440,301,7560,300.7C7680,301,7800,273,7920,252.8C8040,232,8160,219,8280,177.7C8400,137,8520,68,8580,34.2L8640,0L8640,410L8580,410C8520,410,8400,410,8280,410C8160,410,8040,410,7920,410C7800,410,7680,410,7560,410C7440,410,7320,410,7200,410C7080,410,6960,410,6840,410C6720,410,6600,410,6480,410C6360,410,6240,410,6120,410C6000,410,5880,410,5760,410C5640,410,5520,410,5400,410C5280,410,5160,410,5040,410C4920,410,4800,410,4680,410C4560,410,4440,410,4320,410C4200,410,4080,410,3960,410C3840,410,3720,410,3600,410C3480,410,3360,410,3240,410C3120,410,3000,410,2880,410C2760,410,2640,410,2520,410C2400,410,2280,410,2160,410C2040,410,1920,410,1800,410C1680,410,1560,410,1440,410C1320,410,1200,410,1080,410C960,410,840,410,720,410C600,410,480,410,360,410C240,410,120,410,60,410L0,410Z"/></svg>