<svg id="visual" viewBox="0 0 900 200" width="900" height="200" xmlns="http://www.w3.org/2000/svg" xmlns:xlink="http://www.w3.org/1999/xlink" version="1.1"><path d="M0 79L18.8 78.7C37.7 78.3 75.3 77.7 112.8 74.5C150.3 71.3 187.7 65.7 225.2 60.3C262.7 55 300.3 50 337.8 49.7C375.3 49.3 412.7 53.7 450.2 57.3C487.7 61 525.3 64 562.8 67.5C600.3 71 637.7 75 675.2 77.3C712.7 79.7 750.3 80.3 787.8 77.5C825.3 74.7 862.7 68.3 881.3 65.2L900 62L900 0L881.3 0C862.7 0 825.3 0 787.8 0C750.3 0 712.7 0 675.2 0C637.7 0 600.3 0 562.8 0C525.3 0 487.7 0 450.2 0C412.7 0 375.3 0 337.8 0C300.3 0 262.7 0 225.2 0C187.7 0 150.3 0 112.8 0C75.3 0 37.7 0 18.8 0L0 0Z" fill="#fffaf6" stroke-linecap="round" stroke-linejoin="miter"></path></svg>